<?xml version="1.0" encoding="UTF-8" standalone="no"?>
<!DOCTYPE svg PUBLIC "-//W3C//DTD SVG 1.1//EN" "http://www.w3.org/Graphics/SVG/1.1/DTD/svg11.dtd">
<svg width="100%" height="100%" viewBox="0 0 711 349" version="1.1" xmlns="http://www.w3.org/2000/svg" xmlns:xlink="http://www.w3.org/1999/xlink" xml:space="preserve" xmlns:serif="http://www.serif.com/" style="fill-rule:evenodd;clip-rule:evenodd;stroke-linejoin:round;stroke-miterlimit:2;">
    <g transform="matrix(1,0,0,1,-192.426,-356.83)">
        <path d="M271,661.5C271,500.509 401.509,370 562.5,370C723.491,370 854,500.509 854,661.5" style="fill:rgb(42,148,244);fill-opacity:0.09;fill-rule:nonzero;"/>
        <g>
            <path d="M614.237,446.537L622.085,391.393L643.257,388.487L654.27,446.139L614.237,446.537Z" style="fill:rgb(255,227,202);fill-rule:nonzero;"/>
            <path d="M630.602,531.984L630.579,538.199C630.574,539.463 630.746,540.722 631.09,541.939L631.63,543.853C632.074,545.425 630.892,546.985 629.259,546.979C625.025,546.964 617.79,546.975 615.925,546.978C615.62,546.979 615.321,546.773 615.295,546.468C615.138,544.653 620.379,543.438 624.327,541.91C627.334,540.746 627.174,535.341 626.803,532.185C626.663,530.993 627.657,529.978 628.854,530.077C629.845,530.16 630.606,530.99 630.602,531.984Z" style="fill:rgb(255,227,202);fill-rule:nonzero;"/>
            <path d="M659.698,530.24L661.84,537.351C661.935,537.665 662.076,537.963 662.259,538.236L663.777,540.491C664.741,541.922 664.047,543.878 662.397,544.381C662.397,544.381 659.336,545.458 656.18,546.495C652.95,547.556 648.887,546.669 648.887,545.817C648.887,543.923 650.653,545.426 653.61,543.448C654.601,542.785 655.624,542.092 656.536,541.376C659.082,539.378 656.859,534.319 655.301,531.47C654.741,530.446 655.336,529.174 656.478,528.93L657.216,528.773C658.299,528.541 659.378,529.18 659.698,530.24Z" style="fill:rgb(255,227,202);fill-rule:nonzero;"/>
            <path d="M637.822,447.071L614.36,445.102C614.36,445.102 611.997,462.178 617.927,493.089C620.708,507.585 626.503,535.285 626.503,535.285C627.939,535.914 629.4,536.071 630.887,535.701C630.887,535.701 631.327,523.482 631.596,510.324C631.854,497.704 631.924,484.22 632.728,479.808C634.371,470.795 637.822,447.071 637.822,447.071Z" style="fill:rgb(11,72,112);fill-rule:nonzero;"/>
            <path d="M632.979,447.369C630.557,460.369 625.146,479.808 635.569,498.07C645.992,516.332 656.94,535.318 656.94,535.318C658.35,535.375 659.63,534.864 660.818,533.962C660.818,533.962 658.99,525.683 656.348,516.016C653.326,504.957 649.498,491.949 650.588,485.167C652.632,472.456 654.98,455.528 654.268,447.307C653.558,439.085 634.253,440.533 632.979,447.369Z" style="fill:rgb(11,72,112);fill-rule:nonzero;"/>
            <path d="M613.426,445.133L622.084,391.393L643.257,388.487L654.636,445.232C654.85,446.298 654.159,447.334 653.091,447.537C649.149,448.284 639.641,449.845 628.999,449.845C621.055,449.845 616.591,448.3 614.56,447.322C613.737,446.926 613.281,446.035 613.426,445.133Z" style="fill:rgb(247,247,247);fill-rule:nonzero;"/>
            <path d="M636.643,391.834C636.643,395.705 637.347,399.539 638.669,403.178C641.256,410.296 645.136,423.756 642.83,435.615C639.51,452.691 635.241,459.594 640.774,463.574C646.308,467.554 656.921,460.913 657.228,458.7C657.534,456.486 655.163,429.294 652.475,417.513C649.787,405.732 642.258,388.796 642.258,388.796L639.068,389.137C637.689,389.283 636.643,390.447 636.643,391.834Z" style="fill:rgb(255,190,85);fill-rule:nonzero;"/>
            <path d="M627.829,390.605C627.829,390.605 624.157,398.541 625.438,409.943C626.719,421.345 629.686,456.065 619.311,461.308C616.026,462.968 608.523,455.616 608.523,452.888C608.523,450.16 611.027,441.03 613.4,432.729C615.773,424.428 621.491,391.475 621.491,391.475L627.829,390.605Z" style="fill:rgb(255,190,85);fill-rule:nonzero;"/>
            <g>
                <path d="M630.785,366.009C635.51,366.009 637.273,369.373 637.364,375.595C637.398,377.925 636.35,380.234 635.506,381.708C634.879,382.803 634.707,384.1 635.065,385.31L636.103,388.822C636.808,392.08 635.261,393.867 632.977,394.516C631.846,394.837 630.49,394.588 629.502,393.95C628.327,393.191 628.231,391.558 628.449,390.177L628.717,389.176C629.078,387.827 628.296,386.373 626.932,386.075C623.294,385.279 622.772,381.487 621.798,375.596C620.78,369.456 626.059,366.009 630.785,366.009Z" style="fill:rgb(255,227,202);fill-rule:nonzero;"/>
                <path d="M619.781,363.276L622.491,364.1C623.487,364.403 624.549,364.41 625.548,364.12L630.958,362.55C634.235,362.55 639.648,364.401 638.964,369.13L638.36,372.475C638.119,373.811 637.005,374.811 635.652,374.927C635.527,375.389 635.107,375.71 634.628,375.71C634.042,375.71 633.568,375.235 633.568,374.65C633.568,373.141 632.509,371.854 631.037,371.524C629.232,371.119 627.304,371.022 625.286,371.564C621.525,372.574 617.56,370.244 617.185,366.368C617.161,366.123 617.149,365.873 617.149,365.621C617.149,364.057 618.441,362.907 619.781,363.276Z" style="fill:rgb(11,72,112);fill-rule:nonzero;"/>
                <path d="M634.758,375.71C634.758,377.153 635.295,378.322 636.684,378.322C638.073,378.322 638.965,376.338 638.965,374.895C638.965,373.452 638.073,373.097 636.684,373.097C635.295,373.097 634.758,374.267 634.758,375.71Z" style="fill:rgb(255,227,202);fill-rule:nonzero;"/>
            </g>
        </g>
        <path d="M635.333,382.043C635.333,382.043 631.804,386.895 627.412,386.237C627.412,386.237 628.324,386.673 628.546,387.382C628.546,387.382 632.717,387.074 635.333,382.043Z" style="fill:rgb(255,190,85);fill-rule:nonzero;"/>
        <g>
            <g>
                <path d="M420.969,633.152C422.952,630.639 424.745,627.308 423.836,622.593C422.854,617.527 419.16,613.111 415.715,609.174C411.195,604.014 407.471,599.414 406.453,592.884C405.719,588.179 406.023,583.557 403.85,578.549C401.323,572.723 396.302,568.601 391.749,566.21C386.439,563.428 381.082,562.44 375.802,558.415C372.608,555.978 370.132,552.852 368.413,548.869C367.173,545.986 366.332,543.068 365.069,540.192C360.997,530.911 352.618,525.418 347.143,527.499C341.402,527.993 338.137,533.971 340.525,542.737C342.436,549.75 347.538,555.096 351.699,561.1C356.203,567.592 356.969,573.125 357.146,579.371C357.264,583.619 357.255,588.092 359.136,592.834C361.024,597.602 364.528,601.358 368.054,604.651C372.359,608.679 377.633,612.753 379.947,618.834C381.184,622.094 381.459,625.282 382.808,628.561C383.729,630.791 385.029,632.93 386.533,634.857C394.63,645.244 404.772,645.857 411.124,642.227C414.923,640.063 418.169,636.703 420.969,633.152Z" style="fill:rgb(255,190,85);fill-rule:nonzero;"/>
            </g>
            <path d="M366.537,593.9C372.895,595.967 379.254,598.034 385.612,600.1C379.086,590.566 372.966,580.755 367.264,570.703C367.112,570.853 366.891,570.932 366.634,570.832C363.696,569.688 360.757,568.545 357.819,567.401C357.083,567.114 357.557,565.985 358.29,566.271C361.055,567.347 363.819,568.423 366.584,569.499C362.55,562.332 358.738,555.038 355.139,547.634C355.138,547.634 355.137,547.634 355.136,547.633C352.086,546.248 349.037,544.864 345.987,543.479C345.269,543.153 345.74,542.022 346.458,542.349C349.071,543.536 351.685,544.722 354.298,545.909C353.132,543.481 351.984,541.043 350.867,538.59C350.54,537.873 351.679,537.421 352.006,538.138C354.79,544.247 357.731,550.28 360.812,556.237C361.332,553.019 361.595,549.777 361.55,546.51C361.539,545.73 362.755,545.577 362.766,546.366C362.82,550.236 362.5,554.074 361.785,557.879C361.776,557.928 361.751,557.963 361.734,558.005C366.97,568.007 372.612,577.787 378.651,587.315C379.527,581.062 379.79,574.781 379.372,568.469C379.32,567.686 380.536,567.536 380.588,568.325C381.045,575.224 380.743,582.097 379.677,588.929C385.71,598.349 392.124,607.523 398.908,616.423C399.102,611.161 399.297,605.898 399.491,600.636C399.52,599.848 400.733,600.024 400.704,600.805C400.493,606.52 400.282,612.235 400.071,617.949C406.914,626.84 414.115,635.462 421.678,643.772C422.208,644.355 421.227,645.089 420.701,644.51C415.027,638.275 409.558,631.861 404.287,625.295C404.186,625.319 404.079,625.328 403.961,625.294C398.122,623.653 392.282,622.012 386.443,620.371C385.684,620.158 386.165,619.03 386.914,619.241C392.306,620.757 397.699,622.272 403.091,623.787C397.397,616.626 391.954,609.273 386.752,601.753C379.856,599.512 372.961,597.27 366.065,595.029C365.314,594.786 365.792,593.658 366.537,593.9Z" style="fill:rgb(250,250,250);fill-rule:nonzero;"/>
        </g>
        <g>
            <g>
                <path d="M315.738,623.43C339.515,647.271 373.838,659.286 407.289,655.511C408.315,655.395 406.706,653.611 406.588,653.441C386.579,624.65 349.707,611.882 316.181,622.118C315.652,622.279 315.273,622.969 315.738,623.43Z" style="fill:rgb(42,148,244);fill-rule:nonzero;"/>
            </g>
            <path d="M325.609,623.801C346.865,631.834 368.12,639.867 389.376,647.899C384.375,642.96 379.375,638.02 374.374,633.081C373.864,632.577 374.599,631.732 375.112,632.24C380.725,637.784 386.338,643.328 391.951,648.873C398.492,651.345 405.034,653.817 411.576,656.289C412.251,656.544 411.757,657.549 411.088,657.296C404.659,654.866 398.23,652.437 391.801,650.007C391.659,650.034 391.505,650.001 391.366,649.864C391.354,649.852 391.343,649.841 391.331,649.829C369.261,641.489 347.191,633.148 325.121,624.808C324.446,624.553 324.94,623.548 325.609,623.801Z" style="fill:rgb(250,250,250);fill-rule:nonzero;"/>
            <path d="M350.637,625.361C350.1,624.881 350.837,624.039 351.375,624.52C356.364,628.979 361.352,633.437 366.341,637.896C366.878,638.376 366.141,639.218 365.603,638.737C360.614,634.278 355.626,629.82 350.637,625.361Z" style="fill:rgb(250,250,250);fill-rule:nonzero;"/>
            <path d="M333.951,634.343C338.014,633.844 342.077,633.346 346.141,632.847C341.46,629.157 336.779,625.466 332.099,621.776C331.533,621.33 332.273,620.49 332.837,620.935C337.783,624.834 342.728,628.733 347.674,632.633C348.214,633.059 347.566,633.83 347.016,633.515C346.96,633.717 346.804,633.893 346.539,633.925L334.025,635.46C333.307,635.548 333.238,634.431 333.951,634.343Z" style="fill:rgb(250,250,250);fill-rule:nonzero;"/>
            <path d="M351.205,643.139L364.603,638.978C365.29,638.765 365.647,639.826 364.957,640.04L351.559,644.201C350.872,644.415 350.514,643.354 351.205,643.139Z" style="fill:rgb(250,250,250);fill-rule:nonzero;"/>
            <path d="M376.271,650.297C380.575,650.132 384.792,649.43 388.917,648.185C389.605,647.977 389.963,649.038 389.271,649.247C385.057,650.519 380.743,651.245 376.344,651.414C375.624,651.442 375.549,650.325 376.271,650.297Z" style="fill:rgb(250,250,250);fill-rule:nonzero;"/>
        </g>
        <g>
            <g>
                <path d="M402.574,641.044C403.802,638.678 404.747,635.673 403.265,631.959C401.669,627.969 397.956,624.936 394.521,622.256C390.016,618.743 386.25,615.564 384.395,610.383C383.058,606.65 382.583,602.822 380.021,599.066C377.042,594.697 372.29,592.112 368.191,590.869C363.412,589.425 358.876,589.456 353.928,586.991C350.934,585.498 348.42,583.329 346.39,580.341C344.924,578.177 343.779,575.922 342.296,573.768C337.513,566.815 329.799,563.635 325.647,566.194C321.029,567.497 319.295,572.897 322.621,579.693C325.282,585.129 330.292,588.703 334.636,592.961C339.336,597.565 340.829,601.971 341.952,607.051C342.714,610.507 343.407,614.166 345.688,617.751C347.979,621.355 351.433,623.879 354.833,626.019C358.985,628.639 363.936,631.145 366.781,635.757C368.303,638.23 369.027,640.794 370.644,643.265C371.747,644.944 373.145,646.491 374.676,647.831C382.925,655.058 391.316,653.971 395.943,650.008C398.712,647.643 400.84,644.386 402.574,641.044Z" style="fill:rgb(42,148,244);fill-rule:nonzero;"/>
            </g>
            <path d="M329.86,576.736C336.487,583.072 343.085,589.439 349.653,595.836C348.449,592.278 347.245,588.719 346.041,585.161C345.81,584.478 346.901,584.223 347.13,584.901L351.291,597.198C351.325,597.297 351.324,597.384 351.309,597.464C356.816,602.835 362.296,608.233 367.762,613.646C366.74,607.425 365.717,601.205 364.695,594.984C364.579,594.276 365.667,594.012 365.784,594.724C366.875,601.363 367.966,608.002 369.057,614.641C369.074,614.742 369.061,614.831 369.035,614.912C374.097,619.931 379.128,624.982 384.156,630.036C383.11,624.896 382.064,619.756 381.018,614.616C380.874,613.911 381.963,613.649 382.107,614.355C383.268,620.06 384.429,625.764 385.59,631.469C388.956,634.857 392.314,638.252 395.666,641.654L392.351,626.153C392.2,625.449 393.289,625.187 393.44,625.892C394.557,631.118 395.675,636.343 396.792,641.569C396.867,641.921 396.63,642.146 396.358,642.209C396.372,642.263 396.381,642.319 396.38,642.377C400.242,646.298 404.094,650.229 407.929,654.176C408.432,654.694 407.613,655.457 407.111,654.94C403.232,650.948 399.336,646.972 395.43,643.006C390.069,643.383 384.713,643.436 379.345,643.157C378.626,643.12 378.662,642.001 379.383,642.038C384.39,642.299 389.386,642.26 394.385,641.95C391.262,638.782 388.136,635.617 385.001,632.461C384.801,632.437 384.619,632.31 384.566,632.05C384.564,632.04 384.562,632.03 384.56,632.02C384.413,631.872 384.264,631.724 384.116,631.576C378.689,631.34 373.262,631.104 367.836,630.868C367.117,630.837 367.153,629.718 367.874,629.749C372.898,629.967 377.921,630.186 382.945,630.404C377.975,625.406 372.999,620.414 367.994,615.451C362.139,615.135 356.284,614.82 350.428,614.504C349.71,614.465 349.745,613.347 350.466,613.385C355.911,613.678 361.357,613.972 366.802,614.266C361.245,608.764 355.674,603.277 350.075,597.818C349.994,597.865 349.901,597.899 349.783,597.895L341.337,597.577C340.617,597.55 340.654,596.431 341.375,596.458C343.911,596.554 346.447,596.649 348.983,596.744C342.366,590.298 335.719,583.883 329.042,577.499C328.521,577.002 329.341,576.24 329.86,576.736Z" style="fill:rgb(250,250,250);fill-rule:nonzero;"/>
        </g>
        <g>
            <g>
                <path d="M715.218,646.99C712.656,645.07 710.068,642.311 709.736,637.521C709.384,632.373 711.821,627.156 714.14,622.467C717.184,616.319 719.602,610.917 718.909,604.345C718.411,599.609 716.93,595.22 717.744,589.822C718.691,583.543 722.485,578.27 726.272,574.789C730.69,570.737 735.614,568.407 739.683,563.162C742.144,559.986 743.735,556.33 744.373,552.039C744.831,548.935 744.895,545.898 745.378,542.794C746.93,532.779 753.619,525.318 759.445,525.925C765.12,524.929 769.811,529.868 769.753,538.953C769.706,546.221 766.148,552.698 763.667,559.569C760.98,566.999 761.661,572.544 763.093,578.626C764.069,582.762 765.227,587.082 764.627,592.149C764.027,597.242 761.604,601.772 759.041,605.859C755.914,610.858 751.863,616.148 751.188,622.62C750.83,626.088 751.383,629.24 750.92,632.756C750.602,635.147 749.895,637.549 748.937,639.797C743.778,651.914 734.133,655.111 727.062,653.233C722.835,652.117 718.836,649.702 715.218,646.99Z" style="fill:rgb(42,148,244);fill-rule:nonzero;"/>
            </g>
            <path d="M757.749,595.079C752.134,598.709 746.519,602.339 740.905,605.969C744.765,595.079 748.16,584.026 751.091,572.847C751.277,572.953 751.511,572.972 751.733,572.81C754.279,570.95 756.826,569.09 759.372,567.231C760.01,566.765 759.262,565.795 758.626,566.259C756.23,568.009 753.835,569.759 751.439,571.508C753.498,563.546 755.309,555.517 756.887,547.438C756.888,547.437 756.889,547.437 756.89,547.436C759.482,545.315 762.074,543.194 764.666,541.073C765.276,540.574 764.531,539.602 763.92,540.102C761.699,541.92 759.477,543.737 757.256,545.555C757.76,542.909 758.243,540.258 758.693,537.601C758.825,536.824 757.608,536.68 757.477,537.457C756.355,544.077 755.061,550.662 753.612,557.21C752.283,554.233 751.197,551.167 750.402,547.998C750.212,547.241 748.997,547.405 749.19,548.171C750.132,551.925 751.426,555.553 753.094,559.046C753.116,559.091 753.148,559.119 753.176,559.154C750.683,570.165 747.742,581.066 744.35,591.825C741.898,586.007 740.031,580.003 738.815,573.796C738.664,573.026 737.45,573.193 737.603,573.969C738.932,580.755 740.988,587.319 743.773,593.649C740.361,604.302 736.517,614.816 732.245,625.159C730.706,620.123 729.167,615.087 727.629,610.051C727.399,609.297 726.272,609.778 726.5,610.526C728.171,615.995 729.842,621.464 731.513,626.933C727.182,637.283 722.436,647.464 717.26,657.438C716.897,658.137 718.033,658.595 718.394,657.9C722.278,650.417 725.916,642.815 729.325,635.115C729.429,635.113 729.534,635.093 729.64,635.031C734.862,631.946 740.084,628.861 745.307,625.776C745.985,625.375 745.232,624.409 744.561,624.805C739.738,627.654 734.916,630.503 730.093,633.352C733.758,624.97 737.131,616.465 740.227,607.862C746.316,603.925 752.405,599.989 758.494,596.052C759.158,595.621 758.407,594.653 757.749,595.079Z" style="fill:rgb(250,250,250);fill-rule:nonzero;"/>
        </g>
        <g>
            <g>
                <path d="M808.531,632.517C783.232,654.737 748.192,664.461 715.063,658.488C714.047,658.304 715.77,656.63 715.899,656.469C737.764,629.061 775.398,618.753 808.176,631.179C808.692,631.374 809.026,632.088 808.531,632.517Z" style="fill:rgb(42,148,244);fill-rule:nonzero;"/>
            </g>
            <path d="M798.657,632.236C776.918,638.849 755.178,645.462 733.439,652.075C738.755,647.476 744.07,642.878 749.386,638.279C749.928,637.81 749.251,636.918 748.705,637.391C742.739,642.553 736.772,647.715 730.806,652.876C724.116,654.911 717.425,656.946 710.735,658.981C710.045,659.191 710.472,660.227 711.156,660.018C717.731,658.018 724.306,656.018 730.882,654.018C731.022,654.054 731.178,654.032 731.326,653.904C731.338,653.893 731.351,653.882 731.363,653.872C753.935,647.006 776.507,640.14 799.079,633.273C799.767,633.063 799.341,632.028 798.657,632.236Z" style="fill:rgb(250,250,250);fill-rule:nonzero;"/>
            <path d="M773.58,632.141C774.147,631.698 773.467,630.808 772.899,631.253C767.627,635.373 762.355,639.492 757.083,643.612C756.516,644.055 757.195,644.945 757.764,644.5C763.037,640.381 768.308,636.261 773.58,632.141Z" style="fill:rgb(250,250,250);fill-rule:nonzero;"/>
            <path d="M789.638,642.205C785.617,641.439 781.595,640.674 777.573,639.908C782.487,636.534 787.401,633.161 792.315,629.787C792.909,629.379 792.226,628.492 791.634,628.899C786.442,632.463 781.25,636.028 776.058,639.592C775.491,639.981 776.086,640.793 776.657,640.515C776.699,640.721 776.843,640.906 777.106,640.956L789.492,643.314C790.2,643.449 790.344,642.339 789.638,642.205Z" style="fill:rgb(250,250,250);fill-rule:nonzero;"/>
            <path d="M771.841,649.844L758.747,644.808C758.076,644.55 757.649,645.585 758.324,645.844L771.418,650.88C772.089,651.138 772.516,650.103 771.841,649.844Z" style="fill:rgb(250,250,250);fill-rule:nonzero;"/>
            <path d="M746.357,655.332C742.073,654.883 737.911,653.905 733.878,652.39C733.205,652.137 732.778,653.172 733.455,653.426C737.575,654.974 741.832,655.982 746.21,656.441C746.927,656.517 747.076,655.407 746.357,655.332Z" style="fill:rgb(250,250,250);fill-rule:nonzero;"/>
        </g>
        <g>
            <g>
                <path d="M720.722,644.364C719.653,641.922 718.908,638.861 720.631,635.254C722.487,631.378 726.392,628.597 729.996,626.149C734.723,622.941 738.691,620.018 740.883,614.97C742.464,611.333 743.19,607.545 745.994,603.967C749.255,599.804 754.167,597.538 758.339,596.568C763.202,595.443 767.727,595.773 772.827,593.64C775.913,592.347 778.565,590.349 780.787,587.502C782.392,585.44 783.683,583.265 785.306,581.213C790.538,574.591 798.445,571.926 802.418,574.754C806.94,576.359 808.314,581.862 804.547,588.423C801.533,593.672 796.298,596.908 791.683,600.87C786.689,605.154 784.909,609.452 783.453,614.447C782.464,617.845 781.532,621.451 779.02,624.877C776.497,628.322 772.883,630.612 769.35,632.524C765.034,634.865 759.929,637.039 756.786,641.452C755.104,643.819 754.213,646.33 752.436,648.688C751.225,650.291 749.728,651.742 748.111,652.978C739.403,659.645 731.102,658.007 726.747,653.747C724.141,651.203 722.232,647.813 720.722,644.364Z" style="fill:rgb(255,190,85);fill-rule:nonzero;"/>
            </g>
            <path d="M797.52,584.994C790.489,590.879 783.486,596.797 776.51,602.746C777.946,599.275 779.383,595.804 780.819,592.332C781.095,591.666 780.023,591.34 779.75,592L774.787,603.996C774.747,604.093 774.742,604.179 774.752,604.26C768.903,609.256 763.078,614.281 757.267,619.321C758.697,613.181 760.128,607.042 761.559,600.902C761.722,600.203 760.653,599.868 760.49,600.57C758.963,607.123 757.436,613.675 755.91,620.228C755.887,620.328 755.894,620.417 755.914,620.5C750.531,625.174 745.179,629.882 739.828,634.593C741.211,629.533 742.594,624.473 743.976,619.414C744.166,618.72 743.097,618.387 742.907,619.082C741.372,624.698 739.838,630.313 738.303,635.929C734.721,639.087 731.146,642.254 727.577,645.427L731.907,630.178C732.104,629.485 731.035,629.153 730.838,629.846C729.378,634.987 727.919,640.127 726.459,645.268C726.361,645.615 726.582,645.854 726.85,645.936C726.833,645.989 726.82,646.044 726.817,646.102C722.705,649.76 718.602,653.428 714.515,657.113C713.979,657.596 714.745,658.412 715.281,657.929C719.415,654.201 723.565,650.491 727.724,646.791C733.049,647.52 738.389,647.928 743.764,648.003C744.483,648.013 744.522,646.894 743.8,646.884C738.787,646.814 733.804,646.445 728.836,645.806C732.161,642.851 735.489,639.9 738.826,636.957C739.027,636.946 739.217,636.832 739.287,636.576C739.29,636.566 739.292,636.556 739.295,636.547C739.452,636.409 739.61,636.272 739.767,636.133C745.197,636.256 750.628,636.378 756.059,636.501C756.779,636.517 756.816,635.399 756.095,635.382C751.068,635.268 746.041,635.155 741.014,635.041C746.303,630.382 751.597,625.729 756.919,621.107C762.782,621.178 768.646,621.25 774.509,621.321C775.228,621.33 775.267,620.211 774.545,620.202C769.092,620.136 763.639,620.069 758.186,620.003C764.093,614.879 770.015,609.772 775.962,604.694C776.04,604.747 776.13,604.787 776.249,604.79L784.697,605.03C785.417,605.05 785.454,603.932 784.733,603.911C782.196,603.839 779.66,603.767 777.123,603.695C784.151,597.7 791.207,591.737 798.29,585.807C798.839,585.346 798.071,584.532 797.52,584.994Z" style="fill:rgb(250,250,250);fill-rule:nonzero;"/>
        </g>
        <path d="M747.02,433L747.02,661.243L591.965,661.243C590.262,652.134 582.013,644.529 572.722,643.868C566.473,643.405 559.628,645.637 554.206,642.496C548.602,639.256 547.246,631.882 546.866,625.435C546.469,618.971 546.155,611.779 541.493,607.299C537.029,603.034 530.201,602.819 524.035,602.686C513.818,602.454 502.427,601.198 495.798,593.428C490.442,587.113 489.714,577.871 491.88,569.886C494.046,561.901 498.708,554.875 503.287,547.981C507.403,541.798 511.537,535.615 515.653,529.432C520.48,522.191 525.523,513.545 522.778,505.279C519.157,494.351 504.047,490.83 499.964,480.051C497.335,473.141 500.014,464.874 496.624,458.295C494.26,453.716 489.366,450.938 484.407,449.5C474.603,446.656 463.593,448.244 454.996,453.765C449.59,457.237 445.209,462.097 439.902,465.718C434.595,469.339 427.701,471.67 421.766,469.256C415.599,466.743 412.359,460.064 407.201,455.848C401.778,451.434 394.356,449.979 387.395,450.723C384.138,451.087 380.981,451.864 377.889,452.938L377.889,433L747.02,433Z" style="fill:rgb(247,247,247);fill-rule:nonzero;"/>
        <path d="M728.013,447.269C727.938,447.361 727.638,447.461 727.413,447.461L726.832,447.461C726.307,447.461 726.008,447.223 726.214,446.995L728.763,444.379L726.214,441.763C726.008,441.534 726.289,441.297 726.832,441.297L727.413,441.297C727.638,441.297 727.938,441.398 728.013,441.489L729.794,443.3C730.374,442.696 730.974,442.093 731.555,441.489C731.63,441.389 731.93,441.297 732.155,441.297L732.736,441.297C733.261,441.297 733.56,441.535 733.336,441.763L730.824,444.379L733.373,446.995C733.599,447.224 733.318,447.461 732.773,447.461L732.193,447.461C731.967,447.461 731.668,447.37 731.574,447.269L729.813,445.449L728.013,447.269Z" style="fill:rgb(42,148,244);fill-rule:nonzero;"/>
        <path d="M720.115,439.484L713.996,439.484C713.174,439.484 712.502,440.156 712.502,440.978L712.502,443.392L713.828,443.392L713.828,440.978C713.828,440.89 713.899,440.81 713.996,440.81L720.115,440.81C720.212,440.81 720.292,440.89 720.292,440.978L720.292,444.028C720.292,444.125 720.212,444.205 720.115,444.205L716.693,444.205L716.693,445.531L720.115,445.531C720.946,445.531 721.618,444.859 721.618,444.028L721.618,440.978C721.618,440.156 720.946,439.484 720.115,439.484Z" style="fill:rgb(42,148,244);fill-rule:nonzero;"/>
        <path d="M716.516,442.066L710.397,442.066C709.575,442.066 708.903,442.738 708.903,443.56L708.903,446.61C708.903,447.441 709.575,448.113 710.397,448.113L716.516,448.113C717.347,448.113 718.019,447.441 718.019,446.61L718.019,443.56C718.019,442.738 717.347,442.066 716.516,442.066ZM716.693,446.61C716.693,446.707 716.613,446.787 716.516,446.787L710.397,446.787C710.309,446.787 710.229,446.707 710.229,446.61L710.229,443.56C710.229,443.472 710.309,443.392 710.397,443.392L716.516,443.392C716.613,443.392 716.693,443.472 716.693,443.56L716.693,446.61Z" style="fill:rgb(42,148,244);fill-rule:nonzero;"/>
        <path d="M704.309,444.379L696.643,444.379C696.402,444.379 696.204,444.181 696.204,443.94L696.204,442.947C696.204,442.705 696.402,442.508 696.643,442.508L704.309,442.508C704.551,442.508 704.748,442.706 704.748,442.947L704.748,443.94C704.748,444.181 704.551,444.379 704.309,444.379Z" style="fill:rgb(42,148,244);fill-rule:nonzero;"/>
        <g opacity="0.66">
            <g transform="matrix(0.9841,0.1774,-0.1774,0.9841,100.574,-103.53)">
                <rect x="542.717" y="462.21" width="173.371" height="97.205" style="fill:rgb(42,148,244);"/>
            </g>
        </g>
        <path d="M881.426,705L214.426,705C202.276,705 192.426,695.15 192.426,683C192.426,670.85 202.276,661 214.426,661L881.426,661C893.576,661 903.426,670.85 903.426,683C903.426,695.15 893.576,705 881.426,705Z" style="fill:rgb(247,247,247);fill-rule:nonzero;"/>
        <path d="M724.21,619.64L724.171,619.64" style="fill:none;fill-rule:nonzero;"/>
        <rect x="687.657" y="654.091" width="49.745" height="6.028" style="fill:rgb(255,190,85);"/>
        <path d="M727.166,630.718L697.893,630.718L700.888,619.64L724.171,619.64L727.166,630.718Z" style="fill:rgb(247,247,247);fill-rule:nonzero;"/>
        <path d="M733.481,654.091L691.578,654.091L697.893,630.718L727.166,630.718L733.481,654.091Z" style="fill:rgb(255,190,85);fill-rule:nonzero;"/>
        <path d="M727.252,630.718L727.166,630.718" style="fill:none;fill-rule:nonzero;"/>
        <path d="M724.171,619.64L700.889,619.64L706.913,597.338C706.913,597.338 707.211,601.909 712.534,601.909C717.85,601.909 718.148,597.338 718.148,597.338L724.171,619.64Z" style="fill:rgb(255,190,85);fill-rule:nonzero;"/>
        <path d="M664.17,615.12C664.17,615.12 663.951,618.479 660.045,618.479C656.134,618.479 655.915,615.12 655.915,615.12L664.17,615.12Z" style="fill:rgb(255,190,85);fill-opacity:0.72;fill-rule:nonzero;"/>
        <path d="M668.626,631.508L668.597,631.508" style="fill:none;fill-rule:nonzero;"/>
        <rect x="641.766" y="656.823" width="36.553" height="4.43" style="fill:rgb(255,190,85);"/>
        <path d="M670.798,639.648L649.288,639.648L651.489,631.508L668.597,631.508L670.798,639.648Z" style="fill:rgb(247,247,247);fill-rule:nonzero;"/>
        <path d="M675.438,656.823L644.647,656.823L649.288,639.648L670.798,639.648L675.438,656.823Z" style="fill:rgb(255,190,85);fill-rule:nonzero;"/>
        <path d="M670.861,639.648L670.798,639.648" style="fill:none;fill-rule:nonzero;"/>
        <path d="M668.597,631.508L651.489,631.508L655.915,615.12C655.915,615.12 656.134,618.479 660.045,618.479C663.952,618.479 664.17,615.12 664.17,615.12L668.597,631.508Z" style="fill:rgb(255,190,85);fill-rule:nonzero;"/>
        <path d="M718.147,597.339C718.147,597.339 717.849,601.91 712.533,601.91C707.21,601.91 706.912,597.339 706.912,597.339L718.147,597.339Z" style="fill:rgb(255,190,85);fill-opacity:0.74;fill-rule:nonzero;"/>
        <path d="M591.965,661.243L377.889,661.243L377.889,452.938C380.981,451.863 384.138,451.086 387.395,450.723C394.355,449.979 401.778,451.434 407.201,455.848C412.359,460.064 415.599,466.743 421.766,469.256C427.701,471.67 434.595,469.339 439.902,465.718C445.209,462.097 449.59,457.237 454.996,453.765C463.593,448.243 474.603,446.656 484.407,449.5C489.367,450.938 494.26,453.716 496.624,458.295C500.013,464.875 497.335,473.141 499.964,480.051C504.047,490.83 519.158,494.351 522.778,505.279C525.522,513.545 520.48,522.191 515.653,529.432C511.536,535.615 507.403,541.798 503.287,547.981C498.708,554.875 494.045,561.901 491.88,569.886C489.714,577.871 490.442,587.113 495.798,593.428C502.427,601.198 513.818,602.454 524.035,602.686C530.202,602.818 537.029,603.033 541.493,607.299C546.155,611.779 546.469,618.971 546.866,625.435C547.246,631.883 548.602,639.256 554.206,642.496C559.628,645.637 566.473,643.405 572.722,643.868C582.012,644.529 590.262,652.134 591.965,661.243Z" style="fill:rgb(255,190,85);fill-rule:nonzero;"/>
        <path d="M592.354,463.78C592.377,462.356 592.557,460.93 592.507,460.365C592.486,460.129 592.24,459.516 592.181,459.333C592.008,458.796 591.655,457.993 591.792,457.445L592.331,455.135C592.61,454.023 592.284,453.045 591.172,452.766C589.968,452.464 589.163,453.354 589.002,454.586L588.598,456.196C588.469,457.181 587.909,458.014 587.395,458.865C586.349,460.595 586.272,462.931 586.385,464.811C586.456,465.99 587.68,467.008 589.383,468.273C590.22,468.894 591.703,469.608 591.385,468.334C591.118,467.266 588.667,465.183 590.248,462.428C590.326,462.293 590.55,461.96 590.737,462.001C591.295,462.123 591.088,463.377 591.203,464.043C591.364,464.978 591.869,465.466 592.252,465.467C592.657,465.467 592.337,464.797 592.354,463.78Z" style="fill:rgb(255,227,202);fill-rule:nonzero;"/>
        <path d="M619.311,392.206C619.311,392.206 595.393,411.768 592.05,425.238C590.036,433.357 588.875,450.619 588.628,454.604C588.596,455.112 588.9,455.581 589.378,455.756C589.684,455.868 590.04,455.987 590.375,456.071C590.715,456.156 591.167,456.218 591.59,456.262C592.29,456.334 592.93,455.869 593.087,455.183C594.247,450.114 598.914,430.139 601.249,426.494C603.928,422.312 624.297,404.281 625.794,399.551C627.292,394.821 624.677,389.525 619.311,392.206Z" style="fill:rgb(255,190,85);fill-rule:nonzero;"/>
        <path d="M655.331,465.933C655.655,464.546 655.828,463.119 656.013,462.583C656.09,462.359 656.478,461.824 656.58,461.661C656.879,461.182 657.416,460.489 657.416,459.924L657.456,457.552C657.456,456.405 658.01,455.536 659.156,455.536C660.398,455.536 660.962,456.595 660.818,457.829L660.818,459.489C660.703,460.476 661.044,461.42 661.336,462.37C661.93,464.303 661.437,466.587 660.87,468.383C660.514,469.51 659.08,470.199 657.12,471.012C656.157,471.411 654.545,471.743 655.163,470.584C655.681,469.613 658.566,468.188 657.703,465.132C657.66,464.982 657.524,464.604 657.332,464.598C656.761,464.581 656.657,465.848 656.383,466.466C655.999,467.333 655.391,467.685 655.019,467.592C654.627,467.496 655.1,466.923 655.331,465.933Z" style="fill:rgb(255,227,202);fill-rule:nonzero;"/>
        <path d="M646.592,389.952C646.592,389.952 665.034,414.744 665,428.622C664.979,436.987 661.907,454.013 661.177,457.938C661.084,458.439 660.676,458.819 660.17,458.873C659.846,458.907 659.472,458.936 659.126,458.936C658.776,458.936 658.322,458.886 657.901,458.826C657.204,458.726 656.696,458.119 656.711,457.416C656.819,452.217 657.15,431.707 655.772,427.604C654.191,422.896 638.819,400.452 638.517,395.5C638.215,390.547 642.04,386.046 646.592,389.952Z" style="fill:rgb(255,190,85);fill-rule:nonzero;"/>
        <circle cx="564.238" cy="461.499" r="5.961" style="fill:rgb(247,247,247);"/>
        <circle cx="710.23" cy="486.957" r="5.961" style="fill:rgb(247,247,247);"/>
        <g>
            <path d="M408.146,571.118L400.839,519.773L381.125,517.068L370.871,570.747L408.146,571.118Z" style="fill:rgb(255,227,202);fill-rule:nonzero;"/>
            <path d="M392.908,650.676L392.929,656.463C392.933,657.64 392.773,658.812 392.454,659.945L391.951,661.727C391.538,663.191 392.638,664.643 394.159,664.638C398.101,664.624 404.838,664.634 406.574,664.637C406.858,664.637 407.137,664.446 407.161,664.163C407.307,662.473 402.427,661.342 398.751,659.919C395.951,658.835 396.1,653.803 396.445,650.864C396.575,649.754 395.649,648.809 394.535,648.901C393.613,648.978 392.905,649.751 392.908,650.676Z" style="fill:rgb(255,227,202);fill-rule:nonzero;"/>
            <path d="M365.817,649.053L363.823,655.674C363.735,655.967 363.603,656.244 363.433,656.498L362.019,658.597C361.122,659.93 361.768,661.75 363.304,662.219C363.304,662.219 366.154,663.222 369.092,664.187C372.1,665.175 375.883,664.349 375.883,663.556C375.883,661.793 374.239,663.192 371.485,661.351C370.562,660.734 369.61,660.088 368.761,659.422C366.391,657.561 368.46,652.851 369.911,650.198C370.433,649.244 369.879,648.06 368.816,647.833L368.129,647.687C367.12,647.471 366.115,648.065 365.817,649.053Z" style="fill:rgb(255,227,202);fill-rule:nonzero;"/>
            <path d="M386.185,571.614L408.03,569.781C408.03,569.781 410.23,585.68 404.709,614.461C402.12,627.958 396.724,653.749 396.724,653.749C395.387,654.334 394.027,654.481 392.642,654.136C392.642,654.136 392.232,642.759 391.982,630.508C391.742,618.758 391.677,606.203 390.928,602.095C389.399,593.704 386.185,571.614 386.185,571.614Z" style="fill:rgb(11,72,112);fill-rule:nonzero;"/>
            <path d="M390.695,571.892C392.95,583.996 397.989,602.096 388.284,619.099C378.579,636.102 368.386,653.78 368.386,653.78C367.073,653.834 365.882,653.357 364.775,652.517C364.775,652.517 366.477,644.809 368.937,635.808C371.751,625.511 375.315,613.4 374.3,607.085C372.397,595.25 370.211,579.488 370.873,571.834C371.534,564.179 389.509,565.527 390.695,571.892Z" style="fill:rgb(11,72,112);fill-rule:nonzero;"/>
            <path d="M408.9,569.81L400.838,519.773L381.124,517.067L370.529,569.902C370.33,570.895 370.973,571.859 371.968,572.048C375.638,572.744 384.492,574.197 394.399,574.197C401.795,574.197 405.952,572.759 407.843,571.848C408.611,571.479 409.036,570.65 408.9,569.81Z" style="fill:rgb(247,247,247);fill-rule:nonzero;"/>
            <path d="M387.283,520.184C387.283,523.788 386.628,527.358 385.397,530.746C382.989,537.374 379.375,549.906 381.522,560.947C384.614,576.846 388.588,583.274 383.436,586.979C378.283,590.685 368.401,584.501 368.116,582.44C367.831,580.379 370.039,555.06 372.542,544.091C375.045,533.122 382.055,517.353 382.055,517.353L385.025,517.67C386.309,517.809 387.283,518.893 387.283,520.184Z" style="fill:rgb(42,148,244);fill-rule:nonzero;"/>
            <path d="M395.49,519.039C395.49,519.039 398.909,526.428 397.716,537.045C396.524,547.661 393.76,579.989 403.421,584.87C406.48,586.416 413.466,579.57 413.466,577.031C413.466,574.492 411.134,565.99 408.925,558.261C406.716,550.532 401.391,519.849 401.391,519.849L395.49,519.039Z" style="fill:rgb(42,148,244);fill-rule:nonzero;"/>
            <g>
                <path d="M392.738,496.139C388.338,496.139 386.697,499.271 386.613,505.065C386.582,507.235 387.558,509.384 388.343,510.757C388.927,511.777 389.087,512.984 388.754,514.111L387.788,517.381C387.131,520.414 388.572,522.078 390.698,522.682C391.751,522.981 393.014,522.749 393.933,522.155C395.027,521.448 395.117,519.928 394.913,518.642L394.663,517.71C394.327,516.454 395.055,515.1 396.325,514.822C399.713,514.081 400.198,510.55 401.106,505.065C402.053,499.348 397.138,496.139 392.738,496.139Z" style="fill:rgb(255,227,202);fill-rule:nonzero;"/>
                <path d="M402.983,493.594L400.46,494.361C399.533,494.643 398.544,494.649 397.613,494.379L392.575,492.917C389.524,492.917 384.484,494.64 385.121,499.043L385.683,502.157C385.908,503.401 386.945,504.332 388.205,504.44C388.322,504.87 388.712,505.169 389.158,505.169C389.703,505.169 390.145,504.727 390.145,504.182C390.145,502.777 391.131,501.579 392.502,501.271C394.183,500.894 395.978,500.804 397.857,501.309C401.359,502.25 405.05,500.08 405.4,496.471C405.422,496.243 405.434,496.01 405.434,495.775C405.434,494.321 404.231,493.25 402.983,493.594Z" style="fill:rgb(11,72,112);fill-rule:nonzero;"/>
                <path d="M389.038,505.171C389.038,506.514 388.538,507.603 387.245,507.603C385.952,507.603 385.121,505.756 385.121,504.412C385.121,503.069 385.951,502.738 387.245,502.738C388.539,502.738 389.038,503.828 389.038,505.171Z" style="fill:rgb(255,227,202);fill-rule:nonzero;"/>
            </g>
        </g>
        <path d="M388.503,511.068C388.503,511.068 391.789,515.586 395.878,514.973C395.878,514.973 395.029,515.379 394.822,516.039C394.823,516.039 390.939,515.752 388.503,511.068Z" style="fill:rgb(255,190,85);fill-rule:nonzero;"/>
        <path d="M460.736,517.953C459.553,518.553 458.301,519.024 457.857,519.311C457.672,519.43 457.274,519.9 457.149,520.028C456.782,520.404 456.274,521.044 455.763,521.169L453.627,521.729C452.59,521.983 451.926,522.676 452.18,523.713C452.455,524.836 453.538,525.112 454.621,524.709L456.122,524.342C456.989,524.02 457.918,524.119 458.842,524.173C460.721,524.282 462.678,523.331 464.177,522.421C465.117,521.85 465.424,520.4 465.725,518.448C465.873,517.489 465.816,515.957 464.905,516.773C464.141,517.457 463.491,520.381 460.535,520.276C460.39,520.271 460.018,520.231 459.97,520.059C459.828,519.546 460.951,519.172 461.449,518.788C462.149,518.249 462.332,517.621 462.166,517.306C461.994,516.97 461.581,517.525 460.736,517.953Z" style="fill:rgb(255,227,202);fill-rule:nonzero;"/>
        <path d="M398.447,531.128C398.447,531.128 416.585,538.051 429.13,534.951C436.691,533.082 451.41,526.537 454.799,525.009C455.231,524.814 455.485,524.361 455.422,523.891C455.381,523.59 455.325,523.245 455.248,522.933C455.171,522.616 455.025,522.217 454.877,521.849C454.632,521.241 453.971,520.916 453.338,521.085C448.659,522.332 430.183,527.168 426.167,526.83C421.559,526.441 405.937,519.028 401.392,519.85C396.846,520.672 401.225,527.383 398.447,531.128Z" style="fill:rgb(42,148,244);fill-rule:nonzero;"/>
        <path d="M369.883,589.177C369.581,587.885 369.421,586.557 369.248,586.058C369.176,585.85 368.815,585.352 368.72,585.2C368.442,584.754 367.941,584.109 367.941,583.583L367.904,581.375C367.904,580.307 367.388,579.498 366.321,579.498C365.165,579.498 364.64,580.484 364.773,581.633L364.773,583.179C364.88,584.098 364.562,584.977 364.291,585.861C363.738,587.661 364.197,589.788 364.725,591.459C365.056,592.508 366.392,593.15 368.217,593.907C369.113,594.279 370.615,594.587 370.039,593.509C369.556,592.605 366.87,591.279 367.674,588.433C367.714,588.293 367.841,587.942 368.019,587.936C368.551,587.92 368.648,589.1 368.902,589.675C369.259,590.483 369.826,590.81 370.172,590.724C370.539,590.632 370.098,590.099 369.883,589.177Z" style="fill:rgb(255,227,202);fill-rule:nonzero;"/>
        <path d="M378.02,518.431C378.02,518.431 360.849,541.514 360.881,554.437C360.9,562.226 363.761,578.078 364.44,581.733C364.527,582.199 364.906,582.553 365.378,582.603C365.68,582.635 366.028,582.662 366.35,582.662C366.676,582.662 367.099,582.615 367.491,582.559C368.14,582.466 368.613,581.901 368.599,581.246C368.499,576.405 368.19,557.309 369.474,553.488C370.946,549.105 385.258,528.207 385.54,523.596C385.82,518.986 382.259,514.795 378.02,518.431Z" style="fill:rgb(42,148,244);fill-rule:nonzero;"/>
        <path d="M483.971,458.102C485.539,458.341 486.623,459.815 486.385,461.37C486.266,462.148 485.841,462.811 485.247,463.26C484.655,463.696 483.894,463.903 483.104,463.783L463.914,460.854C462.346,460.615 461.262,459.141 461.502,457.573C461.621,456.795 462.046,456.132 462.638,455.696C463.23,455.26 463.99,455.053 464.781,455.173L483.971,458.102Z" style="fill:rgb(247,247,247);fill-rule:nonzero;"/>
        <path d="M471.758,469.374L463.2,525.442C463.16,525.706 462.902,525.895 462.638,525.855L461.294,525.65C461.03,525.61 460.841,525.352 460.881,525.088L469.439,469.02C469.481,468.743 469.737,468.567 470.001,468.607L471.345,468.812C471.608,468.852 471.8,469.097 471.758,469.374Z" style="fill:rgb(42,148,244);fill-rule:nonzero;"/>
        <g>
            <path d="M470.299,468.748C470.118,468.72 469.992,468.55 470.02,468.368L470.471,465.41L457.695,463.46C457.514,463.432 457.388,463.262 457.416,463.08L458.365,456.859C458.393,456.678 458.563,456.552 458.745,456.58L461.322,456.973C461.503,457.001 461.629,457.171 461.601,457.353C461.573,457.534 461.403,457.66 461.221,457.632L458.974,457.289L458.125,462.851L470.901,464.801C471.082,464.829 471.208,464.999 471.18,465.181L470.678,468.468C470.652,468.65 470.481,468.776 470.299,468.748Z" style="fill:rgb(11,72,112);fill-rule:nonzero;"/>
        </g>
        <path d="M400.04,510.54C400.04,510.54 399.022,508.833 395.878,509.475C392.734,510.117 391.776,511.681 391.042,510.181C390.308,508.681 390.236,503.469 390.236,503.469L388.944,504.243C388.944,504.243 389.507,506.479 388.503,507.404C387.5,508.33 386.542,510.883 388.202,512.702C389.862,514.521 389.71,516.276 389.71,516.276L389.862,514.393L390.596,516.436L390.756,515.128L394.203,518.479L398.129,514.553L397.874,515.75C397.872,515.75 400.517,512.113 400.04,510.54Z" style="fill:rgb(11,72,112);fill-rule:nonzero;"/>
        <path d="M415.945,373.098L345.559,373.098C341.067,373.098 337.425,369.456 337.425,364.964C337.425,360.472 341.067,356.83 345.559,356.83L415.945,356.83C420.437,356.83 424.079,360.472 424.079,364.964C424.079,369.456 420.437,373.098 415.945,373.098Z" style="fill:rgb(42,148,244);fill-opacity:0.09;fill-rule:nonzero;"/>
        <path d="M474.398,402.791L404.012,402.791C399.52,402.791 395.878,399.149 395.878,394.657C395.878,390.165 399.52,386.523 404.012,386.523L474.398,386.523C478.89,386.523 482.532,390.165 482.532,394.657C482.532,399.149 478.89,402.791 474.398,402.791Z" style="fill:rgb(42,148,244);fill-opacity:0.09;fill-rule:nonzero;"/>
        <path d="M747.008,373.098L676.622,373.098C672.13,373.098 668.488,369.456 668.488,364.964C668.488,360.472 672.13,356.83 676.622,356.83L747.008,356.83C751.5,356.83 755.142,360.472 755.142,364.964C755.142,369.456 751.5,373.098 747.008,373.098Z" style="fill:rgb(42,148,244);fill-opacity:0.09;fill-rule:nonzero;"/>
        <path d="M805.461,402.791L735.075,402.791C730.583,402.791 726.941,399.149 726.941,394.657C726.941,390.165 730.583,386.523 735.075,386.523L805.461,386.523C809.953,386.523 813.595,390.165 813.595,394.657C813.595,399.149 809.953,402.791 805.461,402.791Z" style="fill:rgb(42,148,244);fill-opacity:0.09;fill-rule:nonzero;"/>
        <g transform="matrix(0.984762,0.173906,-0.173906,0.984762,-522.648,-214.187)">
            <text x="1185.3px" y="510.34px" style="font-family:'EurostileBold', 'Eurostile', sans-serif;font-weight:700;font-size:40px;fill:white;">An error</text>
            <text x="1181.33px" y="542.34px" style="font-family:'EurostileBold', 'Eurostile', sans-serif;font-weight:700;font-size:40px;fill:white;">occurred</text>
        </g>
    </g>
    <g id="アートボード1" transform="matrix(3.69493,0,0,9.7405,0,-4981.07)">
        <rect x="0" y="511.377" width="192.426" height="35.745" style="fill:none;"/>
    </g>
</svg>
