<?xml version="1.0" encoding="UTF-8" standalone="no"?>
<!DOCTYPE svg PUBLIC "-//W3C//DTD SVG 1.1//EN" "http://www.w3.org/Graphics/SVG/1.1/DTD/svg11.dtd">
<svg width="100%" height="100%" viewBox="0 0 855 462" version="1.1" xmlns="http://www.w3.org/2000/svg" xmlns:xlink="http://www.w3.org/1999/xlink" xml:space="preserve" xmlns:serif="http://www.serif.com/" style="fill-rule:evenodd;clip-rule:evenodd;stroke-miterlimit:10;">
    <g id="アートボード1" transform="matrix(1,0,0,1,-126.663,-341.455)">
        <rect x="126.663" y="341.455" width="854.405" height="461.623" style="fill:none;"/>
        <clipPath id="_clip1">
            <rect x="126.663" y="341.455" width="854.405" height="461.623"/>
        </clipPath>
        <g clip-path="url(#_clip1)">
            <g transform="matrix(1,0,0,1,0.663,0.455)">
                <path d="M216.861,768.599C216.861,579.313 370.308,425.866 559.594,425.866C748.88,425.866 902.327,579.313 902.327,768.599" style="fill:rgb(42,148,244);fill-opacity:0.07;fill-rule:nonzero;"/>
                <g>
                    <path d="M224.499,770.302C224.499,770.302 303.939,580.856 332.411,598.377C360.883,615.898 428.138,770.302 428.138,770.302L224.499,770.302Z" style="fill:rgb(42,148,244);fill-rule:nonzero;"/>
                </g>
                <g>
                    <path d="M908.92,770.302C908.92,770.302 836.298,588.941 810.27,605.715C784.242,622.488 722.759,770.302 722.759,770.302L908.92,770.302Z" style="fill:rgb(42,148,244);fill-rule:nonzero;"/>
                </g>
                <path d="M574.925,773.586L524.552,773.586C522.737,773.586 521.267,772.114 521.267,770.301C521.267,768.487 522.737,767.016 524.552,767.016L574.925,767.016C576.739,767.016 578.21,768.487 578.21,770.301C578.21,772.115 576.739,773.586 574.925,773.586Z" style="fill:rgb(94,52,157);fill-rule:nonzero;"/>
                <path d="M546.591,513.852C546.591,515.08 545.595,516.076 544.367,516.076C543.139,516.076 542.143,515.08 542.143,513.852C542.143,512.624 543.139,511.628 544.367,511.628C545.595,511.628 546.591,512.624 546.591,513.852Z" style="fill:rgb(211,211,211);fill-rule:nonzero;"/>
                <path d="M906.013,422.177L678.659,422.177C670.829,422.177 664.423,415.771 664.423,407.941C664.423,400.111 670.829,393.705 678.659,393.705L906.014,393.705C913.844,393.705 920.25,400.111 920.25,407.941C920.249,415.771 913.843,422.177 906.013,422.177Z" style="fill:rgb(211,211,211);fill-rule:nonzero;"/>
                <path d="M402.144,384.162L264.576,384.162C256.746,384.162 250.34,377.756 250.34,369.926C250.34,362.096 256.746,355.69 264.576,355.69L402.143,355.69C409.973,355.69 416.379,362.096 416.379,369.926C416.379,377.756 409.973,384.162 402.144,384.162Z" style="fill:rgb(211,211,211);fill-rule:nonzero;"/>
                <path d="M845.123,369.927L707.556,369.927C699.726,369.927 693.32,363.521 693.32,355.691C693.32,347.861 699.726,341.455 707.556,341.455L845.123,341.455C852.953,341.455 859.359,347.861 859.359,355.691C859.359,363.52 852.953,369.927 845.123,369.927Z" style="fill:rgb(211,211,211);fill-rule:nonzero;"/>
                <path d="M278.466,436.413L140.899,436.413C133.069,436.413 126.663,430.007 126.663,422.177C126.663,414.347 133.069,407.941 140.899,407.941L278.466,407.941C286.296,407.941 292.702,414.347 292.702,422.177C292.702,430.007 286.296,436.413 278.466,436.413Z" style="fill:rgb(211,211,211);fill-rule:nonzero;"/>
                <path d="M869.087,540L731.519,540C723.689,540 717.283,533.594 717.283,525.764C717.283,517.934 723.689,511.528 731.519,511.528L869.086,511.528C876.916,511.528 883.322,517.934 883.322,525.764C883.323,533.594 876.916,540 869.087,540Z" style="fill:rgb(211,211,211);fill-rule:nonzero;"/>
                <path d="M387.179,554.236L212.134,554.236C205.207,554.236 199.54,548.569 199.54,541.642L199.54,538.359C199.54,531.432 205.207,525.764 212.134,525.764L387.179,525.764C394.106,525.764 399.774,531.432 399.774,538.359L399.774,541.642C399.774,548.568 394.106,554.236 387.179,554.236Z" style="fill:rgb(211,211,211);fill-rule:nonzero;"/>
                <path d="M981.068,783.595C981.068,794.355 972.345,803.078 961.585,803.078L180.092,803.078C169.332,803.078 160.609,794.355 160.609,783.595C160.609,772.835 169.332,764.112 180.092,764.112L961.586,764.112C972.346,764.112 981.068,772.835 981.068,783.595Z" style="fill:rgb(211,211,211);fill-rule:nonzero;"/>
                <path d="M263.498,683.959C263.498,683.959 247.975,738.862 286.048,740.733C324.121,742.604 318.197,704.429 311.582,689.463C304.967,674.497 355.153,621.777 300.548,593.321C245.944,564.867 226.923,670.823 263.498,683.959Z" style="fill:rgb(42,148,244);fill-opacity:0.4;fill-rule:nonzero;"/>
                <path d="M198.031,705.404C198.031,705.404 186.884,737.218 209.268,739.703C231.652,742.189 229.545,719.461 226.187,710.395C222.829,701.329 254.339,672.061 223.17,653.298C192.001,634.535 176.939,696.329 198.031,705.404Z" style="fill:rgb(42,148,244);fill-opacity:0.4;fill-rule:nonzero;"/>
                <path d="M211.073,676.203L211.44,767.016" style="fill:none;fill-rule:nonzero;stroke:rgb(77,77,77);stroke-width:1px;"/>
                <path d="M221.062,697.781L211.209,709.943L200.768,699.078" style="fill:none;fill-rule:nonzero;stroke:rgb(77,77,77);stroke-width:1px;"/>
                <path d="M283.103,626.509L284.525,764.112" style="fill:none;fill-rule:nonzero;stroke:rgb(77,77,77);stroke-width:1px;"/>
                <path d="M300.345,644.196L283.447,659.779L268.141,645.477" style="fill:none;fill-rule:nonzero;stroke:rgb(77,77,77);stroke-width:1px;"/>
                <path d="M300.252,673.124L283.354,688.708L268.048,674.405" style="fill:none;fill-rule:nonzero;stroke:rgb(77,77,77);stroke-width:1px;"/>
                <path d="M891.105,683.959C891.105,683.959 875.582,738.862 913.655,740.733C951.728,742.604 945.804,704.429 939.189,689.463C932.574,674.497 982.76,621.777 928.155,593.321C873.551,564.867 854.53,670.823 891.105,683.959Z" style="fill:rgb(42,148,244);fill-opacity:0.4;fill-rule:nonzero;"/>
                <path d="M825.638,705.404C825.638,705.404 814.491,737.218 836.875,739.703C859.259,742.189 857.152,719.461 853.794,710.395C850.436,701.329 881.946,672.061 850.777,653.298C819.608,634.535 804.546,696.329 825.638,705.404Z" style="fill:rgb(42,148,244);fill-opacity:0.4;fill-rule:nonzero;"/>
                <path d="M838.679,676.203L839.047,767.016" style="fill:none;fill-rule:nonzero;stroke:rgb(77,77,77);stroke-width:1px;"/>
                <path d="M848.668,697.781L838.816,709.943L828.375,699.078" style="fill:none;fill-rule:nonzero;stroke:rgb(77,77,77);stroke-width:1px;"/>
                <path d="M910.709,626.509L912.132,764.112" style="fill:none;fill-rule:nonzero;stroke:rgb(77,77,77);stroke-width:1px;"/>
                <path d="M927.951,644.196L911.053,659.779L895.748,645.477" style="fill:none;fill-rule:nonzero;stroke:rgb(77,77,77);stroke-width:1px;"/>
                <path d="M927.858,673.124L910.96,688.708L895.655,674.405" style="fill:none;fill-rule:nonzero;stroke:rgb(77,77,77);stroke-width:1px;"/>
                <g>
                    <path d="M587.396,638.962L577.079,566.468L549.245,562.648L534.768,638.438L587.396,638.962Z" style="fill:rgb(250,185,175);fill-rule:nonzero;"/>
                    <path d="M565.882,751.291L565.912,759.462C565.918,761.124 565.692,762.779 565.241,764.379L564.531,766.896C563.948,768.962 565.501,771.013 567.648,771.005C573.213,770.985 582.725,771 585.177,771.004C585.578,771.005 585.971,770.734 586.006,770.334C586.213,767.948 579.322,766.351 574.132,764.342C570.179,762.812 570.39,755.706 570.877,751.557C571.061,749.989 569.754,748.655 568.181,748.786C566.878,748.894 565.878,749.985 565.882,751.291Z" style="fill:rgb(14,83,140);fill-rule:nonzero;"/>
                    <path d="M527.632,748.999L524.816,758.347C524.692,758.76 524.506,759.152 524.265,759.51L522.269,762.474C521.002,764.356 521.914,766.926 524.084,767.588C524.084,767.588 528.108,769.004 532.257,770.367C536.504,771.762 541.845,770.596 541.845,769.476C541.845,766.986 539.524,768.962 535.636,766.362C534.333,765.491 532.988,764.579 531.789,763.638C528.443,761.011 531.365,754.361 533.413,750.615C534.15,749.268 533.368,747.596 531.866,747.276L530.896,747.069C529.472,746.765 528.052,747.605 527.632,748.999Z" style="fill:rgb(14,83,140);fill-rule:nonzero;"/>
                    <path d="M556.39,639.663L587.233,637.074C587.233,637.074 590.339,659.522 582.544,700.159C578.888,719.215 571.27,755.63 571.27,755.63C569.382,756.456 567.462,756.664 565.507,756.176C565.507,756.176 564.928,740.113 564.575,722.815C564.236,706.225 564.144,688.498 563.087,682.698C560.927,670.851 556.39,639.663 556.39,639.663Z" style="fill:rgb(255,190,85);fill-rule:nonzero;"/>
                    <path d="M556.39,639.663L587.233,637.074C587.233,637.074 590.339,659.522 582.544,700.159C578.888,719.215 571.27,755.63 571.27,755.63C569.382,756.456 567.462,756.664 565.507,756.176C565.507,756.176 564.928,740.113 564.575,722.815C564.236,706.225 564.144,688.498 563.087,682.698C560.927,670.851 556.39,639.663 556.39,639.663Z" style="fill-opacity:0.07;fill-rule:nonzero;"/>
                    <path d="M562.757,640.054C565.941,657.144 573.055,682.699 559.352,706.707C545.649,730.714 531.258,755.673 531.258,755.673C529.404,755.749 527.722,755.076 526.159,753.89C526.159,753.89 528.562,743.006 532.035,730.298C536.008,715.76 541.041,698.659 539.607,689.743C536.92,673.033 533.833,650.779 534.769,639.971C535.704,629.165 561.082,631.068 562.757,640.054Z" style="fill:rgb(255,190,85);fill-rule:nonzero;"/>
                    <path d="M562.757,640.054C565.941,657.144 573.055,682.699 559.352,706.707C545.649,730.714 531.258,755.673 531.258,755.673C529.404,755.749 527.722,755.076 526.159,753.89C526.159,753.89 528.562,743.006 532.035,730.298C536.008,715.76 541.041,698.659 539.607,689.743C536.92,673.033 533.833,650.779 534.769,639.971C535.704,629.165 561.082,631.068 562.757,640.054Z" style="fill-opacity:0.07;fill-rule:nonzero;"/>
                    <path d="M588.462,637.116L577.08,566.469L549.246,562.649L534.287,637.248C534.006,638.65 534.914,640.011 536.319,640.278C541.501,641.26 554.001,643.312 567.99,643.312C578.433,643.312 584.302,641.281 586.972,639.996C588.053,639.473 588.653,638.301 588.462,637.116Z" style="fill:white;fill-rule:nonzero;"/>
                    <path d="M557.941,567.048C557.941,572.137 557.016,577.178 555.278,581.961C551.877,591.319 546.776,609.013 549.807,624.603C554.172,647.052 559.784,656.127 552.509,661.358C545.234,666.59 531.281,657.86 530.879,654.95C530.476,652.04 533.594,616.292 537.128,600.805C540.662,585.318 550.559,563.053 550.559,563.053L554.752,563.501C556.565,563.695 557.941,565.225 557.941,567.048Z" style="fill:rgb(255,190,85);fill-rule:nonzero;"/>
                    <path d="M569.528,565.432C569.528,565.432 574.355,575.865 572.672,590.854C570.988,605.843 567.087,651.487 580.727,658.379C585.046,660.562 594.91,650.896 594.91,647.311C594.91,643.725 591.618,631.722 588.499,620.809C585.38,609.896 577.862,566.575 577.862,566.575L569.528,565.432Z" style="fill:rgb(255,190,85);fill-rule:nonzero;"/>
                    <g>
                        <path d="M565.642,533.098C559.43,533.098 557.112,537.52 556.994,545.7C556.95,548.763 558.328,551.799 559.437,553.737C560.261,555.177 560.487,556.882 560.017,558.473L558.653,563.09C557.726,567.373 559.76,569.722 562.762,570.575C564.249,570.997 566.032,570.67 567.33,569.831C568.874,568.833 569.001,566.687 568.714,564.87L568.362,563.554C567.887,561.781 568.915,559.869 570.709,559.477C575.492,558.431 576.177,553.445 577.459,545.701C578.794,537.629 571.854,533.098 565.642,533.098Z" style="fill:rgb(250,185,175);fill-rule:nonzero;"/>
                        <path d="M565.413,528.551C561.105,528.551 553.989,530.984 554.888,537.201L555.682,541.598C555.999,543.354 557.464,544.669 559.242,544.821C559.407,545.429 559.958,545.851 560.588,545.851C561.358,545.851 561.982,545.227 561.982,544.457C561.982,542.474 563.374,540.782 565.309,540.347C567.682,539.814 570.217,539.687 572.87,540.4C577.736,541.707 583.512,533.65 583.52,533.569C583.52,533.569 581.056,535.455 576.182,533.665C571.309,531.875 573.341,528.31 565.413,528.551Z" style="fill:rgb(14,83,140);fill-rule:nonzero;"/>
                        <path d="M560.418,545.851C560.418,547.748 559.712,549.285 557.886,549.285C556.06,549.285 554.888,546.677 554.888,544.78C554.888,542.883 556.06,542.417 557.886,542.417C559.712,542.417 560.418,543.954 560.418,545.851Z" style="fill:rgb(250,185,175);fill-rule:nonzero;"/>
                    </g>
                    <path d="M551.007,542.954C551.007,542.954 550.348,544.51 548.776,546.699C547.993,547.798 546.976,549.049 545.728,550.389C544.497,551.748 543.106,553.269 541.566,554.896C540.038,556.534 538.352,558.271 536.657,560.175C534.945,562.06 533.261,564.15 531.689,566.386C530.155,568.641 528.666,571.018 527.549,573.447C527.004,574.658 526.532,575.882 526.26,577.019C525.977,578.148 525.897,579.211 526.041,579.855C526.113,580.173 526.219,580.381 526.315,580.5C526.426,580.609 526.535,580.653 526.668,580.743C526.941,580.903 527.536,581.23 528.51,581.421L529.056,581.557C529.139,581.575 529.256,581.612 529.311,581.615L529.469,581.622L530.098,581.67L530.833,581.702L531.536,581.655C532.451,581.528 533.249,581.256 533.935,580.87C535.301,580.09 536.299,579.114 537.522,578.13C538.717,577.117 540.038,575.956 541.244,574.64C543.656,572.004 545.723,569.03 547.269,566.791C548.069,565.614 548.698,564.69 549.127,564.06C549.583,563.399 549.861,563.031 549.861,563.031L551.26,563.076C551.26,563.076 551.499,563.466 551.881,564.227C552.232,564.986 552.73,566.125 553.117,567.633C553.886,570.623 554.375,575.22 552.513,580.67C551.567,583.36 550.028,586.307 547.389,588.852C546.063,590.108 544.466,591.242 542.632,592.094C540.805,592.955 538.743,593.5 536.648,593.719C532.437,594.14 528.194,593.196 524.821,591.612C523.93,591.213 522.894,590.713 521.926,590.082C520.941,589.408 519.947,588.639 519.076,587.571C518.205,586.532 517.5,585.272 517.064,583.963C516.644,582.652 516.496,581.347 516.512,580.149C516.571,577.746 517.204,575.802 517.915,574.082C518.638,572.359 519.509,570.87 520.412,569.468C522.22,566.677 524.176,564.259 526.152,562.032C528.105,559.793 530.042,557.729 531.86,555.768C533.697,553.826 535.459,552.029 537.165,550.457C538.863,548.877 540.495,547.517 541.976,546.355C543.439,545.173 544.819,544.263 546.025,543.598C548.431,542.26 550.112,541.878 550.112,541.878L551.007,542.954Z" style="fill:rgb(255,190,85);fill-rule:nonzero;"/>
                    <path d="M599.345,643.368C599.345,643.368 598.411,642.136 597.643,639.901C597.235,638.786 596.963,637.409 596.632,635.833C596.325,634.254 596.01,632.471 595.744,630.517C595.46,628.566 595.186,626.448 594.78,624.227C594.371,622.007 593.818,619.686 593.255,617.298C592.674,614.913 592.009,612.466 591.288,610.032C590.946,608.803 590.526,607.616 590.163,606.405C589.759,605.222 589.387,604.097 588.909,602.822C588.466,601.617 587.988,600.408 587.514,599.222C587,598.049 586.489,596.889 585.936,595.772C584.847,593.529 583.697,591.421 582.745,589.378C581.772,587.339 580.95,585.372 580.166,583.49C579.356,581.627 578.582,579.859 577.801,578.222C577.017,576.59 576.272,575.054 575.547,573.686C574.823,572.32 574.174,571.069 573.597,570.041C573.018,568.972 572.563,568.133 572.252,567.56C571.933,566.972 571.772,566.631 571.772,566.631L572.464,565.65C572.464,565.65 572.837,565.698 573.518,565.84C573.868,565.899 574.277,566.007 574.756,566.147C575.239,566.282 575.803,566.435 576.4,566.666C577.614,567.1 579.053,567.733 580.608,568.642C582.158,569.552 583.854,570.717 585.505,572.214C587.158,573.704 588.824,575.481 590.312,577.537C591.815,579.579 593.177,581.883 594.172,584.392C595.209,586.888 595.85,589.583 596.414,592.272C596.938,594.926 597.47,597.622 598.002,600.319C598.25,601.586 598.5,603.03 598.736,604.4C598.927,605.762 599.114,607.127 599.244,608.457C599.539,611.126 599.733,613.727 599.929,616.236C600.15,618.74 600.282,621.16 600.496,623.439C600.711,625.718 600.99,627.858 601.194,629.841C601.417,631.821 601.53,633.646 601.587,635.267C601.624,636.891 601.659,638.305 601.495,639.49C601.219,641.853 600.538,643.252 600.538,643.252L599.345,643.368Z" style="fill:rgb(255,190,85);fill-rule:nonzero;"/>
                    <path d="M558.623,542.232C556.954,543.081 555.373,544.116 554.677,544.384C554.387,544.496 553.52,544.559 553.27,544.595C552.536,544.7 551.383,544.747 550.816,545.225L548.398,547.194C547.245,548.165 545.902,548.344 544.931,547.192C543.879,545.944 544.467,544.479 545.828,543.579L547.497,542.173C548.587,541.452 549.247,540.31 549.955,539.212C551.395,536.978 554.11,535.539 556.395,534.588C557.829,533.991 559.737,534.85 562.214,536.132C563.431,536.762 565.13,538.102 563.441,538.461C562.026,538.762 558.15,537.068 555.808,540.525C555.693,540.695 555.429,541.152 555.585,541.349C556.051,541.937 557.413,540.969 558.266,540.721C559.463,540.372 560.331,540.686 560.553,541.138C560.791,541.616 559.815,541.625 558.623,542.232Z" style="fill:rgb(250,185,175);fill-rule:nonzero;"/>
                    <path d="M597.181,651.546C597.218,649.673 597.049,647.792 597.141,647.052C597.179,646.743 597.531,645.949 597.618,645.712C597.871,645.015 598.373,643.976 598.218,643.25L597.62,640.19C597.306,638.716 597.781,637.446 599.255,637.133C600.851,636.793 601.867,638.001 602.02,639.626L602.474,641.761C602.597,643.062 603.293,644.182 603.928,645.324C605.22,647.647 605.211,650.719 604.973,653.183C604.824,654.729 603.168,656.008 600.871,657.589C599.742,658.366 597.76,659.233 598.238,657.575C598.639,656.185 601.958,653.564 600.011,649.869C599.915,649.687 599.636,649.239 599.389,649.284C598.65,649.418 598.863,651.076 598.68,651.945C598.424,653.165 597.738,653.783 597.235,653.767C596.703,653.748 597.155,652.883 597.181,651.546Z" style="fill:rgb(250,185,175);fill-rule:nonzero;"/>
                </g>
                <path d="M559.663,554.176C559.663,554.176 564.303,560.554 570.076,559.69C570.076,559.69 568.877,560.263 568.586,561.195C568.585,561.195 563.102,560.79 559.663,554.176Z" style="fill:rgb(232,148,139);fill-rule:nonzero;"/>
                <path d="M564.661,504.723C564.825,504.057 565.271,503.787 565.936,503.95L570.751,505.133C571.418,505.297 571.689,505.743 571.524,506.409L570.367,511.122C570.203,511.788 569.757,512.059 569.09,511.895L564.275,510.712C563.61,510.548 563.339,510.102 563.504,509.436L564.661,504.723ZM580.387,471.216C585.151,472.386 587.135,475.59 585.952,480.404L583.473,490.496C583.335,491.059 583.093,491.38 582.595,491.638L574.554,496.29C574.108,496.561 573.866,496.881 573.728,497.445L573.174,499.698C573.011,500.365 572.565,500.635 571.898,500.471L567.083,499.288C566.418,499.124 566.147,498.678 566.311,498.012L567.418,493.505C567.544,492.992 567.785,492.672 568.231,492.401L576.897,487.196L578.633,480.126C578.96,478.794 578.367,477.889 577.086,477.574L574.628,476.97C573.244,476.63 572.403,477.184 572.076,478.516L571.095,482.512C570.969,483.024 570.586,483.256 570.074,483.13L564.746,481.821C564.183,481.683 564.002,481.313 564.128,480.8L565.462,475.37C566.645,470.555 569.835,468.623 574.65,469.806L580.387,471.216Z" style="fill:rgb(255,190,85);fill-rule:nonzero;"/>
                <g transform="matrix(1,0.000269909,-0.000269909,1,-802.511,-104.477)">
                    <text x="1268.13px" y="552.34px" style="font-family:'EurostileBold', 'Eurostile', sans-serif;font-weight:700;font-size:100px;fill:rgb(255,190,85);">404</text>
                </g>
            </g>
        </g>
    </g>
</svg>
